<svg width="72" height="24" viewBox="0 0 72 24" fill="none" xmlns="http://www.w3.org/2000/svg">
<g clip-path="url(#clip0_186_169144)">
<path d="M15.8072 0.140541C15.901 0.156216 15.9947 0.171864 16.0885 0.187416C16.0292 0.375174 15.9603 0.550088 15.8737 0.726845C15.8497 0.776219 15.8256 0.825594 15.8009 0.876465C15.7749 0.92945 15.749 0.982435 15.7223 1.03703C15.6662 1.15219 15.6103 1.26744 15.5545 1.38273C15.5403 1.41217 15.526 1.44161 15.5113 1.47194C15.3709 1.76276 15.236 2.05604 15.1012 2.34953C14.6958 3.2299 14.2673 4.09952 13.8385 4.96867C13.8235 5.00261 13.8085 5.03655 13.793 5.07152C13.7447 5.15617 13.7447 5.15617 13.6349 5.18739C13.5894 5.1911 13.5439 5.19482 13.497 5.19865C13.4464 5.20341 13.3958 5.20817 13.3436 5.21308C13.2623 5.21971 13.2623 5.21971 13.1793 5.22648C11.5258 5.39029 10.0553 6.03993 8.86972 7.21867C8.84768 7.24052 8.82563 7.26238 8.80291 7.2849C8.4413 7.64864 8.15026 8.0458 7.88535 8.48429C7.8671 8.51429 7.84885 8.54429 7.83005 8.5752C7.48695 9.1503 7.27197 9.76405 7.08847 10.4062C7.07867 10.4399 7.06887 10.4737 7.05877 10.5085C6.78615 11.5031 6.85462 12.8001 7.13535 13.7812C7.15195 13.8392 7.15195 13.8392 7.16888 13.8984C7.51085 15.0476 8.12353 16.0277 8.96347 16.8749C9.00329 16.9153 9.04311 16.9558 9.08414 16.9974C10.3294 18.1931 12.0976 18.8325 13.814 18.8101C15.4636 18.7616 16.861 18.1614 18.151 17.1562C18.2755 17.2687 18.3516 17.3889 18.4344 17.5343C18.4621 17.5825 18.4897 17.6308 18.5182 17.6805C18.5478 17.7327 18.5775 17.785 18.608 17.8388C18.6394 17.8937 18.6708 17.9486 18.7022 18.0035C18.7675 18.1175 18.8327 18.2317 18.8978 18.3458C19.0463 18.6061 19.1964 18.8655 19.3463 19.1249C19.4045 19.2257 19.4626 19.3266 19.5208 19.4274C19.6733 19.6917 19.8258 19.9559 19.9784 20.2201C20.0386 20.3245 20.0987 20.4289 20.1587 20.5333C20.2811 20.746 20.4036 20.9585 20.5301 21.1687C20.5574 21.2147 20.5574 21.2147 20.5853 21.2616C20.6309 21.3381 20.677 21.4142 20.7232 21.4903C20.7836 21.6264 20.7809 21.6613 20.7291 21.7968C20.6182 21.8833 20.5112 21.9574 20.3922 22.0312C20.3568 22.0534 20.3214 22.0757 20.285 22.0986C18.2865 23.3386 16.0986 24.0243 13.7418 24.0146C13.6975 24.0145 13.6531 24.0144 13.6075 24.0143C12.926 24.0118 12.2593 23.9894 11.5885 23.8593C11.5408 23.8502 11.4932 23.8412 11.4441 23.8318C9.58728 23.4669 7.82301 22.6954 6.33847 21.5155C6.29648 21.4825 6.25448 21.4496 6.21122 21.4156C5.86338 21.1371 5.53637 20.8378 5.21347 20.5312C5.15529 20.476 5.15529 20.476 5.09592 20.4197C4.85502 20.1851 4.63857 19.9359 4.43093 19.6715C4.38754 19.6163 4.34391 19.5613 4.3001 19.5065C3.90573 19.0119 3.55704 18.5032 3.24472 17.953C3.21265 17.8969 3.21265 17.8969 3.17993 17.8396C2.17905 16.067 1.68781 14.0713 1.68613 12.0409C1.6861 12.0062 1.68607 11.9715 1.68604 11.9357C1.68997 9.1895 2.63288 6.53531 4.36972 4.40617C4.39096 4.3801 4.4122 4.35403 4.43409 4.32718C4.93591 3.71643 5.48034 3.15867 6.1041 2.67179C6.15301 2.63173 6.20183 2.59156 6.25058 2.55131C7.78027 1.29981 9.65667 0.510332 11.5885 0.140541C11.629 0.132731 11.6696 0.124921 11.7113 0.116875C13.0234 -0.121361 14.4969 -0.102844 15.8072 0.140541Z" fill="#010203"/>
<path d="M53.8888 6.16106C53.9264 6.16077 53.964 6.16048 54.0027 6.16018C54.082 6.15985 54.1613 6.16 54.2405 6.16059C54.3616 6.16124 54.4824 6.15965 54.6034 6.15786C54.6806 6.15781 54.7579 6.1579 54.8351 6.15813C54.8891 6.1572 54.8891 6.1572 54.9441 6.15625C55.1084 6.15909 55.2133 6.1769 55.3501 6.2695C55.536 6.47045 55.5443 6.75674 55.584 7.01643C55.594 7.07682 55.604 7.13721 55.6144 7.19943C55.6417 7.36462 55.6679 7.52998 55.6939 7.69539C55.7214 7.86873 55.7499 8.04188 55.7783 8.21506C55.832 8.54314 55.8847 8.87136 55.937 9.19965C55.9965 9.5723 56.057 9.94479 56.1176 10.3173C56.2213 10.9541 56.3241 11.5912 56.4261 12.2283C56.4345 12.2808 56.4429 12.3333 56.4515 12.3874C56.4588 12.4328 56.466 12.4783 56.4735 12.525C56.4957 12.6626 56.5186 12.8001 56.5416 12.9376C56.7522 12.0364 56.9532 11.1335 57.1463 10.2284C57.2162 9.90117 57.2866 9.57405 57.3569 9.24692C57.4174 8.96537 57.4775 8.68375 57.537 8.40199C57.5956 8.12456 57.6551 7.84733 57.7152 7.57023C57.7377 7.46566 57.7599 7.36102 57.7818 7.2563C57.812 7.1114 57.8434 6.96678 57.8751 6.82218C57.8838 6.77941 57.8924 6.73663 57.9013 6.69257C57.9445 6.50088 57.9717 6.39891 58.111 6.25494C58.2537 6.1736 58.3466 6.16343 58.5104 6.16271C58.5635 6.16247 58.6167 6.16223 58.6715 6.16198C58.7266 6.1627 58.7817 6.16343 58.8385 6.16418C58.9211 6.16309 58.9211 6.16309 59.0055 6.16198C59.0586 6.16222 59.1118 6.16246 59.1666 6.16271C59.2391 6.16303 59.2391 6.16303 59.3131 6.16335C59.4885 6.19492 59.556 6.24927 59.6822 6.37511C59.7283 6.50026 59.7599 6.60947 59.7867 6.73861C59.7951 6.77522 59.8034 6.81184 59.812 6.84956C59.8396 6.9712 59.8658 7.09309 59.8921 7.21502C59.9113 7.30109 59.9306 7.38714 59.95 7.47318C60.0015 7.70308 60.052 7.9332 60.1022 8.16339C60.154 8.39998 60.2069 8.63633 60.2597 8.87271C60.3428 9.24506 60.4253 9.61753 60.5073 9.99012C60.6368 10.5784 60.7686 11.1661 60.9009 11.7538C60.9326 11.8949 60.9641 12.036 60.9955 12.1771C61.005 12.2196 61.0144 12.2621 61.0242 12.3058C61.0413 12.3826 61.0584 12.4594 61.0754 12.5362C61.1058 12.6726 61.138 12.8049 61.1822 12.9376C61.1872 12.9053 61.1922 12.8729 61.1973 12.8396C61.3188 12.052 61.4404 11.2644 61.5624 10.4769C61.6214 10.0961 61.6803 9.71525 61.739 9.33437C61.7901 9.00236 61.8414 8.67038 61.893 8.33842C61.9202 8.16269 61.9474 7.98695 61.9744 7.81117C61.9998 7.64562 62.0254 7.48011 62.0513 7.31462C62.0652 7.22513 62.0788 7.1356 62.0925 7.04607C62.1009 6.99244 62.1093 6.93881 62.118 6.88355C62.1287 6.81394 62.1287 6.81394 62.1397 6.74292C62.2121 6.38374 62.2121 6.38374 62.3356 6.24162C62.4997 6.16268 62.659 6.16661 62.8373 6.16729C62.8938 6.16692 62.8938 6.16692 62.9515 6.16654C63.031 6.16624 63.1106 6.16631 63.1901 6.1667C63.3116 6.1671 63.4329 6.16576 63.5543 6.16427C63.6317 6.16419 63.7091 6.16422 63.7865 6.16436C63.8227 6.16383 63.8588 6.16331 63.8961 6.16276C64.0594 6.16487 64.1767 6.18494 64.3242 6.25645C64.4741 6.44896 64.4318 6.6677 64.4042 6.90274C64.387 7.01372 64.3673 7.12398 64.3467 7.23438C64.3354 7.29733 64.3354 7.29733 64.3239 7.36156C64.2988 7.50118 64.2731 7.64069 64.2475 7.78022C64.2293 7.88074 64.2111 7.98127 64.193 8.0818C64.1437 8.35433 64.094 8.62677 64.0442 8.89921C63.9919 9.18529 63.9401 9.47144 63.8883 9.75759C63.7954 10.2695 63.7023 10.7813 63.609 11.2931C63.4915 11.9377 63.3744 12.5824 63.2574 13.2271C63.0927 14.135 62.9278 15.0428 62.7623 15.9505C62.7445 16.048 62.7268 16.1456 62.709 16.2431C62.6691 16.4628 62.6289 16.6824 62.5883 16.902C62.5556 17.0792 62.524 17.2565 62.4929 17.434C62.4768 17.5236 62.4607 17.6132 62.4446 17.7028C62.4375 17.7442 62.4305 17.7855 62.4233 17.828C62.3553 18.2003 62.3553 18.2003 62.2135 18.3282C62.0813 18.3467 61.9677 18.3534 61.8356 18.3515C61.7986 18.3516 61.7617 18.3516 61.7237 18.3517C61.6456 18.3516 61.5676 18.3511 61.4896 18.3501C61.3702 18.3488 61.2508 18.3491 61.1313 18.3498C61.0555 18.3495 60.9797 18.3491 60.9039 18.3486C60.8682 18.3487 60.8324 18.3488 60.7956 18.349C60.5496 18.3446 60.5496 18.3446 60.4505 18.2759C60.3584 18.1511 60.3349 18.032 60.2991 17.8812C60.2877 17.8339 60.2877 17.8339 60.276 17.7857C60.2504 17.6792 60.2256 17.5725 60.2008 17.4658C60.1825 17.3889 60.1642 17.312 60.1459 17.2352C60.0842 16.9747 60.0237 16.714 59.9635 16.4532C59.9526 16.4063 59.9418 16.3594 59.9307 16.3111C59.7644 15.5904 59.6007 14.8691 59.4375 14.1477C59.3402 13.7179 59.2428 13.2883 59.1453 12.8586C59.1115 12.7098 59.0779 12.561 59.0442 12.4121C59.0238 12.3221 59.0034 12.232 58.983 12.1419C58.9737 12.1009 58.9645 12.0598 58.9549 12.0175C58.9421 11.9613 58.9421 11.9613 58.9291 11.9038C58.9217 11.8713 58.9144 11.8388 58.9068 11.8053C58.8878 11.7286 58.8635 11.6532 58.8385 11.5782C58.8287 11.6208 58.8287 11.6208 58.8186 11.6642C58.6583 12.3589 58.4978 13.0536 58.3372 13.7482C58.2596 14.0842 58.182 14.4201 58.1044 14.7561C58.0367 15.0494 57.969 15.3427 57.9011 15.636C57.8653 15.7908 57.8295 15.9457 57.7938 16.1006C57.7169 16.4341 57.6395 16.7675 57.5611 17.1007C57.538 17.1992 57.515 17.2976 57.4922 17.3961C57.4613 17.5286 57.4299 17.661 57.3982 17.7933C57.385 17.851 57.385 17.851 57.3715 17.9098C57.2975 18.2133 57.2975 18.2133 57.151 18.3282C57.0214 18.3428 56.9027 18.3491 56.7731 18.3486C56.7361 18.3488 56.6992 18.3491 56.6612 18.3493C56.5832 18.3496 56.5051 18.3495 56.4271 18.3491C56.3077 18.3487 56.1883 18.3501 56.0688 18.3516C55.993 18.3517 55.9172 18.3516 55.8414 18.3515C55.8057 18.352 55.7699 18.3525 55.7331 18.3531C55.4874 18.3498 55.4874 18.3498 55.3884 18.2603C55.2912 18.0829 55.2654 17.9021 55.231 17.7041C55.2227 17.6587 55.2144 17.6134 55.2059 17.5667C55.1778 17.4125 55.1504 17.2583 55.1231 17.104C55.1029 16.9921 55.0826 16.8801 55.0623 16.7682C55.0171 16.5192 54.9724 16.2701 54.9278 16.021C54.8569 15.6242 54.7851 15.2275 54.7133 14.8309C54.5509 13.9341 54.3894 13.0371 54.2282 12.1401C54.1517 11.7147 54.0751 11.2893 53.9985 10.8639C53.9318 10.4935 53.8652 10.1231 53.7985 9.75268C53.7881 9.69505 53.7881 9.69505 53.7776 9.63627C53.7572 9.52319 53.7369 9.41011 53.7165 9.29703C53.71 9.26063 53.7034 9.22422 53.6967 9.18671C53.6649 9.01001 53.6331 8.83329 53.6015 8.65655C53.5488 8.36195 53.4958 8.06741 53.4412 7.77315C53.4242 7.68114 53.4072 7.5891 53.3903 7.49706C53.3699 7.38587 53.3492 7.27472 53.3282 7.16363C53.2795 6.89693 53.24 6.64634 53.2604 6.37511C53.4319 6.16095 53.631 6.1594 53.8888 6.16106Z" fill="#010203"/>
<path d="M16.1354 10.2657C16.2394 10.2465 16.2394 10.2465 16.3716 10.2441C16.4216 10.2429 16.4716 10.2417 16.5231 10.2404C16.5782 10.2398 16.6333 10.2392 16.6901 10.2386C16.748 10.2375 16.8058 10.2363 16.8654 10.2351C17.0577 10.2316 17.2499 10.2293 17.4422 10.2273C17.5084 10.2265 17.5747 10.2258 17.6409 10.225C17.9167 10.222 18.1924 10.2193 18.4681 10.2177C18.8629 10.2155 19.2575 10.2108 19.6522 10.2028C19.9299 10.1973 20.2075 10.1946 20.4853 10.1939C20.6511 10.1933 20.8167 10.1917 20.9825 10.1871C21.9879 10.1607 21.9879 10.1607 22.2307 10.3336C22.3781 10.4957 22.4582 10.674 22.5257 10.8805C22.5748 11.0181 22.6511 11.1374 22.7275 11.2613C22.7822 11.3561 22.8367 11.4511 22.8912 11.546C22.9524 11.6523 23.0135 11.7585 23.0747 11.8648C23.1055 11.9183 23.1362 11.9718 23.168 12.027C23.3157 12.2838 23.4638 12.5404 23.6119 12.797C23.6702 12.8979 23.7284 12.9989 23.7866 13.0998C23.9381 13.3625 24.0899 13.625 24.2416 13.8874C24.3301 14.0407 24.4184 14.1941 24.5066 14.3475C24.6055 14.5195 24.7052 14.6909 24.8062 14.8617C24.8456 14.9293 24.885 14.9969 24.9244 15.0646C24.9423 15.0941 24.9601 15.1236 24.9784 15.154C25.0922 15.3511 25.0922 15.3511 25.0743 15.4674C25.0184 15.6303 24.9299 15.7766 24.8453 15.9259C24.8144 15.981 24.8144 15.981 24.7828 16.0373C24.5565 16.4389 24.3232 16.8365 24.0902 17.2344C23.9149 17.5338 23.7413 17.8342 23.568 18.1349C23.5391 18.185 23.5101 18.2352 23.4803 18.2869C23.3444 18.5227 23.2086 18.7586 23.073 18.9947C22.4374 20.1016 22.4374 20.1016 22.1354 20.5782C21.9855 20.4403 21.888 20.3022 21.7886 20.1249C21.7587 20.072 21.7289 20.0192 21.6981 19.9648C21.6825 19.9369 21.6669 19.9089 21.6508 19.8801C21.5844 19.7613 21.5173 19.6428 21.4503 19.5243C21.416 19.4636 21.3816 19.4028 21.3473 19.342C21.1909 19.0649 21.0308 18.7901 20.8698 18.5157C20.604 18.062 20.3423 17.6062 20.0826 17.149C20.0247 17.0473 19.9653 16.9463 19.9048 16.8461C19.8141 16.69 19.7448 16.5307 19.6761 16.364C19.4408 15.8182 19.4408 15.8182 18.9977 15.4518C18.6259 15.3607 18.2465 15.3761 17.8667 15.3922C17.7017 15.398 17.5366 15.3973 17.3714 15.3973C17.0597 15.3983 16.7483 15.405 16.4367 15.4138C16.0816 15.4236 15.7264 15.4269 15.3712 15.4297C14.6413 15.4356 13.9119 15.4496 13.1823 15.4689C13.2419 15.2845 13.3049 15.1235 13.404 14.9569C13.4297 14.9133 13.4553 14.8698 13.4818 14.8249C13.5096 14.7783 13.5374 14.7317 13.566 14.6837C13.6259 14.5823 13.6857 14.4808 13.7455 14.3794C13.7764 14.3271 13.8073 14.2747 13.8391 14.2209C13.988 13.9679 14.1345 13.7135 14.2809 13.4591C14.3399 13.3567 14.3989 13.2543 14.4579 13.1518C14.4872 13.101 14.5165 13.0501 14.5467 12.9977C14.7222 12.6932 14.8978 12.3889 15.0735 12.0845C15.2111 11.8461 15.3486 11.6076 15.486 11.3689C15.551 11.2559 15.6161 11.143 15.6811 11.03C15.7272 10.95 15.7732 10.87 15.8192 10.79C15.8469 10.7418 15.8747 10.6936 15.9034 10.6438C15.9279 10.6013 15.9524 10.5587 15.9776 10.5149C16.0276 10.4302 16.0809 10.3475 16.1354 10.2657Z" fill="#010203"/>
<path d="M38.7717 6.16467C38.8033 6.16449 38.835 6.16432 38.8676 6.16413C38.9721 6.16379 39.0765 6.16479 39.181 6.16584C39.2545 6.16595 39.3279 6.16599 39.4013 6.16597C39.5555 6.16612 39.7096 6.16689 39.8637 6.16815C40.059 6.16973 40.2542 6.1701 40.4494 6.17003C40.6014 6.17006 40.7533 6.17058 40.9053 6.17125C40.9771 6.17154 41.0489 6.17173 41.1207 6.1718C42.2624 6.17415 43.4357 6.27963 44.3003 7.11066C44.9372 7.79385 45.0273 8.64958 45.0252 9.53912C45.025 9.66697 45.0261 9.79477 45.0273 9.92261C45.0306 10.8017 44.906 11.5651 44.2739 12.2257C44.0575 12.4322 43.8309 12.5907 43.569 12.7344C43.5128 12.7653 43.5128 12.7653 43.4554 12.7969C43.4272 12.8123 43.3989 12.8278 43.3698 12.8437C43.8704 14.1373 44.3726 15.4304 44.8791 16.7217C44.9111 16.8034 44.943 16.8851 44.9749 16.9669C45.0421 17.1395 45.1098 17.3117 45.1814 17.4826C45.2034 17.5361 45.2254 17.5896 45.248 17.6447C45.2763 17.7115 45.2763 17.7115 45.3052 17.7796C45.346 17.9348 45.3354 18.0337 45.2916 18.1874C45.2302 18.2648 45.2302 18.2648 45.151 18.3281C45.012 18.3432 44.8831 18.35 44.744 18.35C44.704 18.3504 44.6641 18.3508 44.6229 18.3511C44.5385 18.3516 44.4541 18.3518 44.3696 18.3516C44.2405 18.3515 44.1115 18.3535 43.9823 18.3555C43.9003 18.3558 43.8182 18.3559 43.7361 18.3559C43.6976 18.3567 43.659 18.3574 43.6192 18.3582C43.565 18.3576 43.565 18.3576 43.5097 18.3569C43.4781 18.357 43.4465 18.3571 43.4139 18.3572C43.2684 18.3106 43.2188 18.2186 43.1354 18.0937C43.0686 17.9475 43.0686 17.9475 43.0068 17.7811C42.9896 17.7353 42.9896 17.7353 42.9721 17.6885C42.9343 17.5876 42.8971 17.4864 42.86 17.3853C42.8333 17.3135 42.8065 17.2418 42.7797 17.17C42.7089 16.9803 42.6387 16.7905 42.5686 16.6005C42.4993 16.4132 42.4296 16.226 42.3599 16.0388C42.2639 15.7808 42.1681 15.5228 42.0724 15.2647C41.8985 14.7955 41.7233 14.3268 41.5475 13.8583C41.5351 13.8254 41.5228 13.7925 41.5101 13.7586C41.4425 13.5786 41.3749 13.3987 41.3073 13.2187C40.82 13.1955 40.82 13.1955 40.3229 13.1718C40.3239 13.3214 40.3248 13.4709 40.3259 13.625C40.329 14.1185 40.331 14.6121 40.3326 15.1056C40.3336 15.4049 40.3349 15.7042 40.337 16.0035C40.3391 16.2923 40.3402 16.581 40.3407 16.8698C40.341 16.98 40.3417 17.0903 40.3427 17.2006C40.3441 17.3548 40.3442 17.5089 40.3442 17.6632C40.3452 17.7318 40.3452 17.7318 40.3462 17.8019C40.3443 18.1094 40.3443 18.1094 40.2389 18.2626C40.0813 18.3622 39.9248 18.3549 39.7443 18.353C39.7065 18.3532 39.6687 18.3533 39.6298 18.3535C39.55 18.3536 39.4703 18.3533 39.3905 18.3525C39.2686 18.3515 39.1468 18.3525 39.0248 18.3537C38.9473 18.3536 38.8697 18.3533 38.7921 18.353C38.7557 18.3534 38.7194 18.3537 38.6819 18.3541C38.533 18.3515 38.4246 18.3431 38.2977 18.2621C38.1676 18.0743 38.1875 17.896 38.1894 17.6726C38.1891 17.6245 38.1887 17.5765 38.1884 17.5269C38.1875 17.3654 38.188 17.2038 38.1885 17.0422C38.1882 16.9266 38.1878 16.8109 38.1873 16.6953C38.1863 16.4135 38.1863 16.1317 38.1866 15.85C38.1869 15.621 38.1869 15.392 38.1866 15.163C38.1865 15.1304 38.1865 15.0979 38.1865 15.0643C38.1864 14.9981 38.1863 14.932 38.1862 14.8658C38.1854 14.2451 38.1858 13.6244 38.1866 13.0038C38.1873 12.4357 38.1866 11.8676 38.1853 11.2996C38.1839 10.7165 38.1834 10.1334 38.1838 9.5503C38.1839 9.48437 38.1839 9.41844 38.184 9.35251C38.184 9.32007 38.184 9.28763 38.184 9.25421C38.1841 9.02547 38.1837 8.79673 38.183 8.56798C38.1821 8.26018 38.1824 7.9524 38.1836 7.6446C38.1838 7.53145 38.1836 7.41829 38.183 7.30514C38.1823 7.15104 38.183 6.997 38.1841 6.8429C38.1835 6.79779 38.1829 6.75269 38.1824 6.70622C38.1866 6.40475 38.1866 6.40475 38.3231 6.2534C38.4817 6.16957 38.5924 6.16425 38.7717 6.16467ZM40.3229 7.9687C40.3229 9.11338 40.3229 10.2581 40.3229 11.4374C41.5438 11.5121 41.5438 11.5121 42.6198 11.0156C42.8409 10.7348 42.9084 10.4956 42.9105 10.1405C42.9109 10.0875 42.9109 10.0875 42.9113 10.0335C42.9118 9.95863 42.9121 9.88381 42.9123 9.80899C42.9127 9.69551 42.9142 9.58207 42.9156 9.4686C42.916 9.3957 42.9162 9.32279 42.9164 9.24988C42.917 9.21637 42.9175 9.18286 42.9181 9.14834C42.9169 8.86499 42.8587 8.60755 42.6778 8.38087C41.9784 7.79782 41.2639 7.9687 40.3229 7.9687Z" fill="#010203"/>
<path d="M65.333 6.16467C65.3787 6.1644 65.3787 6.1644 65.4253 6.16413C65.5259 6.16379 65.6265 6.16479 65.7271 6.16584C65.7977 6.16595 65.8682 6.16599 65.9388 6.16597C66.087 6.16612 66.2352 6.16689 66.3834 6.16815C66.5713 6.16973 66.7593 6.1701 66.9472 6.17003C67.0933 6.17006 67.2393 6.17058 67.3853 6.17125C67.4545 6.17154 67.5236 6.17173 67.5928 6.1718C68.754 6.17428 69.8851 6.3705 70.7448 7.2187C71.3301 7.91949 71.509 8.67409 71.5084 9.56714C71.5087 9.63249 71.509 9.69785 71.5093 9.7632C71.5102 9.93948 71.5104 10.1158 71.5104 10.292C71.5105 10.4026 71.5107 10.5131 71.511 10.6237C71.5118 11.0106 71.5122 11.3974 71.5121 11.7843C71.5121 12.1429 71.5131 12.5016 71.5145 12.8602C71.5158 13.1697 71.5163 13.4792 71.5162 13.7887C71.5162 13.9729 71.5164 14.157 71.5174 14.3412C71.5233 15.4904 71.5012 16.5374 70.6446 17.4049C69.5753 18.4114 68.1673 18.3921 66.7908 18.3897C66.6176 18.3895 66.4444 18.3903 66.2712 18.3914C66.1366 18.392 66.0021 18.3921 65.8675 18.3919C65.8036 18.392 65.7397 18.3922 65.6758 18.3927C65.5869 18.3933 65.498 18.3928 65.4091 18.3924C65.3587 18.3924 65.3084 18.3925 65.2565 18.3925C65.0865 18.3707 64.9605 18.3095 64.8385 18.1874C64.8338 18.1243 64.8324 18.061 64.8322 17.9977C64.832 17.9566 64.8318 17.9155 64.8316 17.8731C64.8316 17.8274 64.8316 17.7817 64.8316 17.7346C64.8314 17.6865 64.8313 17.6383 64.8311 17.5887C64.8306 17.4261 64.8304 17.2634 64.8302 17.1007C64.8299 16.9847 64.8296 16.8686 64.8293 16.7525C64.8284 16.4032 64.8279 16.0538 64.8275 15.7045C64.8273 15.5401 64.827 15.3758 64.8268 15.2114C64.826 14.6652 64.8253 14.119 64.8249 13.5728C64.8249 13.431 64.8248 13.2892 64.8247 13.1474C64.8246 13.0945 64.8246 13.0945 64.8246 13.0405C64.8242 12.4693 64.823 11.898 64.8215 11.3268C64.82 10.7407 64.8191 10.1547 64.819 9.56863C64.8189 9.23941 64.8184 8.91019 64.8173 8.58096C64.8161 8.27136 64.816 7.96177 64.8164 7.65216C64.8165 7.53833 64.8162 7.42449 64.8155 7.31066C64.8147 7.15564 64.815 7.00065 64.8156 6.84563C64.8151 6.80024 64.8146 6.75486 64.8141 6.7081C64.817 6.40522 64.817 6.40522 64.9249 6.25323C65.0654 6.16181 65.166 6.16427 65.333 6.16467ZM66.9479 8.10932C66.9479 10.8628 66.9479 13.6162 66.9479 16.4531C68.0598 16.5307 68.0598 16.5307 69.0355 16.0707C69.2692 15.7765 69.3908 15.4501 69.392 15.0773C69.3922 15.0265 69.3925 14.9756 69.3928 14.9232C69.3928 14.8677 69.3929 14.8121 69.3929 14.7548C69.3932 14.6961 69.3934 14.6374 69.3936 14.5769C69.3942 14.4159 69.3946 14.255 69.3948 14.094C69.3949 13.9933 69.3951 13.8925 69.3953 13.7918C69.3959 13.4762 69.3964 13.1606 69.3966 12.845C69.3968 12.4815 69.3976 12.1181 69.399 11.7546C69.4 11.4731 69.4005 11.1917 69.4005 10.9102C69.4006 10.7424 69.4008 10.5745 69.4017 10.4067C69.4026 10.2191 69.4024 10.0315 69.4021 9.84395C69.4025 9.78895 69.403 9.73394 69.4034 9.67728C69.4009 9.18127 69.3247 8.79797 68.9756 8.43342C68.4069 7.95128 67.6518 8.10932 66.9479 8.10932Z" fill="#010203"/>
<path d="M50.776 6.18731C50.828 6.2038 50.88 6.2203 50.9336 6.23729C51.2818 6.35897 51.5674 6.51895 51.8541 6.74981C51.8942 6.78171 51.9343 6.81362 51.9757 6.84649C52.5056 7.29341 52.8276 7.89285 52.9322 8.57793C52.9459 8.81581 52.9455 9.05353 52.9451 9.29172C52.9453 9.3633 52.9455 9.43488 52.9458 9.50646C52.9464 9.69988 52.9465 9.89329 52.9464 10.0867C52.9463 10.2487 52.9465 10.4107 52.9468 10.5728C52.9473 10.9554 52.9473 11.338 52.947 11.7205C52.9467 12.1139 52.9473 12.5073 52.9483 12.9006C52.9491 13.2395 52.9494 13.5783 52.9493 13.9172C52.9492 14.1191 52.9493 14.321 52.9499 14.5228C52.9505 14.7129 52.9504 14.903 52.9498 15.0931C52.9497 15.1623 52.9498 15.2316 52.9502 15.3009C52.9546 16.1355 52.7903 16.8548 52.198 17.4697C52.1618 17.5054 52.1257 17.5411 52.0885 17.5779C52.0562 17.6112 52.0239 17.6445 51.9907 17.6788C51.2436 18.4023 50.1978 18.5375 49.2044 18.5255C48.2103 18.4975 47.3142 18.158 46.6193 17.4294C46.1737 16.8865 45.9432 16.2473 45.9413 15.5437C45.941 15.4843 45.9407 15.4249 45.9404 15.3637C45.9404 15.2985 45.9403 15.2332 45.9403 15.168C45.9401 15.0988 45.9398 15.0296 45.9396 14.9605C45.939 14.7729 45.9387 14.5854 45.9385 14.3979C45.9383 14.2805 45.9381 14.1631 45.9379 14.0456C45.9373 13.6775 45.9368 13.3093 45.9366 12.9411C45.9364 12.5176 45.9356 12.0941 45.9342 11.6706C45.9332 11.3423 45.9328 11.014 45.9327 10.6857C45.9327 10.4901 45.9324 10.2945 45.9315 10.0989C45.9308 9.91449 45.9307 9.73013 45.9311 9.54575C45.9311 9.4786 45.9309 9.41145 45.9304 9.3443C45.9251 8.52461 46.0659 7.8027 46.6041 7.17168C46.6584 7.10253 46.6584 7.10253 46.7138 7.03197C47.1823 6.47094 47.9964 6.15053 48.7032 6.05588C49.3794 5.99605 50.1254 5.97332 50.776 6.18731ZM48.2447 8.39043C48.075 8.6185 48.0514 8.81611 48.0503 9.09571C48.05 9.15379 48.0496 9.21188 48.0493 9.27173C48.0492 9.33598 48.049 9.40023 48.0489 9.46448C48.0486 9.53225 48.0483 9.60002 48.048 9.66779C48.047 9.8902 48.0465 10.1126 48.046 10.335C48.0459 10.4117 48.0457 10.4883 48.0455 10.565C48.0446 10.9252 48.0439 11.2854 48.0435 11.6456C48.0431 12.061 48.0418 12.4763 48.0399 12.8917C48.0385 13.213 48.0378 13.5344 48.0377 13.8557C48.0376 14.0475 48.0371 14.2393 48.036 14.4311C48.0349 14.6116 48.0347 14.7921 48.0351 14.9727C48.0352 15.0387 48.0349 15.1048 48.0342 15.1708C48.0301 15.6165 48.062 15.9015 48.3502 16.2537C48.792 16.6152 49.2881 16.6407 49.8385 16.5936C50.1609 16.5271 50.476 16.391 50.6822 16.1248C50.8656 15.8057 50.8452 15.4774 50.8468 15.1179C50.8476 15.0493 50.8485 14.9806 50.8494 14.912C50.8517 14.7269 50.8531 14.5417 50.8543 14.3565C50.8553 14.202 50.8569 14.0474 50.8584 13.8929C50.8632 13.4112 50.8663 12.9295 50.869 12.4477C50.8699 12.2907 50.871 12.1336 50.8721 11.9765C50.875 11.5364 50.877 11.0962 50.8782 10.656C50.8785 10.5531 50.879 10.4502 50.8795 10.3473C50.8804 10.1551 50.8805 9.9629 50.8805 9.77068C50.8809 9.71487 50.8812 9.65906 50.8815 9.60155C50.8815 8.85458 50.8815 8.85458 50.5081 8.24248C49.8511 7.71238 48.8315 7.81755 48.2447 8.39043Z" fill="#010203"/>
<path d="M34.1763 6.02916C34.2626 6.02983 34.2626 6.02983 34.3507 6.0305C35.1934 6.04452 35.9444 6.22588 36.6197 6.74987C36.6613 6.7779 36.7028 6.80594 36.7457 6.83483C37.2671 7.32811 37.5032 8.03096 37.5277 8.73272C37.5289 8.82609 37.53 8.91946 37.5303 9.01283C37.5308 9.10894 37.5331 9.20491 37.5355 9.30098C37.5358 9.36192 37.5362 9.42286 37.5365 9.48565C37.5374 9.56852 37.5374 9.56852 37.5384 9.65306C37.5103 9.79674 37.5103 9.79674 37.4136 9.90848C37.2463 10.0006 37.1091 10.0106 36.9229 10.0075C36.8727 10.0076 36.8727 10.0076 36.8216 10.0077C36.7511 10.0076 36.6807 10.0071 36.6102 10.0061C36.5028 10.0048 36.3955 10.0051 36.2881 10.0058C36.2194 10.0055 36.1508 10.0051 36.0821 10.0046C36.0343 10.0048 36.0343 10.0048 35.9855 10.005C35.7837 10.001 35.6555 9.96647 35.4947 9.84362C35.4408 9.73591 35.4413 9.6719 35.4396 9.55211C35.4339 8.82481 35.4339 8.82481 35.0904 8.20592C34.6884 7.96025 34.2785 7.91902 33.8218 8.00377C33.5658 8.068 33.3969 8.17519 33.233 8.38463C33.0978 8.626 33.0455 8.8325 33.0447 9.1085C33.0443 9.16705 33.0439 9.22559 33.0434 9.28591C33.0435 9.35019 33.0435 9.41447 33.0436 9.47875C33.0433 9.54691 33.043 9.61508 33.0426 9.68325C33.0418 9.86795 33.0416 10.0526 33.0415 10.2373C33.0414 10.3529 33.0412 10.4684 33.041 10.584C33.0401 10.9875 33.0397 11.391 33.0398 11.7945C33.0399 12.1699 33.0389 12.5453 33.0374 12.9208C33.0362 13.2437 33.0357 13.5666 33.0357 13.8895C33.0358 14.0821 33.0355 14.2747 33.0345 14.4673C33.0336 14.6485 33.0336 14.8298 33.0343 15.011C33.0344 15.0773 33.0341 15.1436 33.0336 15.2098C33.0304 15.6054 33.0338 15.9832 33.3109 16.2925C33.5938 16.545 33.9096 16.5893 34.2759 16.5936C34.5924 16.5672 34.8213 16.5058 35.0728 16.3124C35.1038 16.3124 35.1347 16.3124 35.1666 16.3124C35.1991 16.2348 35.2299 16.1564 35.2603 16.078C35.2781 16.0377 35.2781 16.0377 35.2962 15.9965C35.4085 15.7129 35.4207 15.4396 35.4218 15.1377C35.4254 14.9868 35.4322 14.8821 35.5186 14.7559C35.682 14.6381 35.8323 14.6448 36.0264 14.6468C36.0642 14.6467 36.102 14.6465 36.1409 14.6463C36.2207 14.6462 36.3004 14.6465 36.3802 14.6473C36.5021 14.6483 36.6239 14.6473 36.7459 14.6461C36.8234 14.6462 36.901 14.6465 36.9786 14.6468C37.015 14.6465 37.0513 14.6461 37.0888 14.6457C37.2502 14.6485 37.3517 14.6594 37.4863 14.7515C37.5714 14.8808 37.5813 14.9536 37.5821 15.1075C37.5825 15.156 37.5829 15.2044 37.5833 15.2544C37.5824 15.3057 37.5815 15.3571 37.5806 15.41C37.5801 15.4626 37.5796 15.5152 37.579 15.5694C37.5591 16.4272 37.3259 17.1051 36.7134 17.7186C36.6869 17.7457 36.6604 17.7728 36.6331 17.8006C35.8687 18.5183 34.6978 18.5453 33.7156 18.5219C33.0245 18.491 32.3929 18.2753 31.8384 17.8592C31.7803 17.8158 31.7803 17.8158 31.7211 17.7715C31.1498 17.2843 30.9478 16.5602 30.8541 15.8436C30.8366 15.601 30.8347 15.3594 30.8359 15.1163C30.8357 15.0472 30.8354 14.9781 30.8351 14.9091C30.8345 14.7239 30.8347 14.5387 30.8352 14.3535C30.8355 14.1582 30.8352 13.9629 30.835 13.7675C30.8347 13.4397 30.8351 13.1119 30.8357 12.7841C30.8365 12.4071 30.8363 12.03 30.8355 11.653C30.8348 11.3272 30.8348 11.0014 30.8351 10.6755C30.8353 10.4819 30.8354 10.2882 30.8349 10.0945C30.8345 9.91228 30.8348 9.73007 30.8356 9.54784C30.8358 9.48164 30.8357 9.41543 30.8354 9.34923C30.8315 8.44354 30.9902 7.62281 31.6288 6.94364C32.3079 6.26781 33.2423 6.01801 34.1763 6.02916Z" fill="#010203"/>
<path d="M27.3854 0C27.7412 0 28.0969 0 28.4635 0C28.4635 7.92 28.4635 15.84 28.4635 24C28.1077 24 27.7519 24 27.3854 24C27.3854 16.08 27.3854 8.16 27.3854 0Z" fill="#010203"/>
<path d="M21.8924 1.45778C22.3507 1.84441 22.566 2.26774 22.651 2.85927C22.7064 3.51726 22.529 4.12427 22.116 4.64162C21.5909 5.19455 20.9241 5.5166 20.2496 5.8488C19.6546 6.14745 19.2563 6.43409 19.0416 7.07802C20.2173 7.07802 21.3929 7.07802 22.6041 7.07802C22.6041 7.57302 22.6041 8.06802 22.6041 8.57802C20.7943 8.57802 18.9844 8.57802 17.1198 8.57802C17.1694 7.48678 17.2219 6.53594 17.9166 5.67177C17.9405 5.64029 17.9644 5.60881 17.989 5.57637C18.4418 5.01398 19.1021 4.65945 19.735 4.33876C20.4471 4.01216 20.4471 4.01216 20.9166 3.42177C20.9482 3.17858 20.9454 2.96948 20.8434 2.74501C20.5933 2.4821 20.3242 2.39222 19.9674 2.38173C19.4703 2.38996 19.0683 2.54932 18.7047 2.8915C18.513 3.09246 18.3764 3.31903 18.2448 3.56239C18.0728 3.49025 17.9642 3.38639 17.8339 3.25441C17.7922 3.21242 17.7505 3.17042 17.7075 3.12715C17.6644 3.08322 17.6212 3.0393 17.5768 2.99404C17.5325 2.94928 17.4882 2.90454 17.4438 2.85982C17.3356 2.75047 17.2276 2.64091 17.1198 2.53114C17.4788 1.7706 18.0324 1.30629 18.8073 0.98427C19.8259 0.621061 21.0338 0.817119 21.8924 1.45778Z" fill="#010203"/>
</g>
<defs>
<clipPath id="clip0_186_169144">
<rect width="70.875" height="24" fill="white" transform="translate(0.666626)"/>
</clipPath>
</defs>
</svg>
