<svg width="100" height="24" viewBox="0 0 100 24" fill="none" xmlns="http://www.w3.org/2000/svg">
<path d="M99.02 8.0313L98.73 11.4713H97.33C95.09 11.4713 93.92 13.2713 93.92 14.9913V22.7613H89.94V8.0313H93.71L93.8 9.8713C94.59 8.6113 95.97 8.0313 97.68 8.0313H99.03H99.02ZM71.46 22.7613H67.48V14.9713C67.48 13.3413 67.34 11.2913 65.05 11.2913C62.76 11.2913 61.96 12.8813 61.96 14.7413V22.7613H57.98V8.0313H61.67L61.75 9.9113C62.54 8.6513 64.01 7.6713 66.18 7.6713C70.19 7.6713 71.45 10.5313 71.45 13.5113V22.7613H71.46ZM56.24 19.3213L55.96 22.6713C55.01 22.9313 54.16 23.0213 53.13 23.0213C49.38 23.0213 48.29 21.3013 48.29 17.8513V3.8813H52.27V8.0313H56.23L55.95 11.4713H52.27V17.5513C52.27 18.9413 52.65 19.6913 54.07 19.6913C54.69 19.6913 55.38 19.6213 56.23 19.3313M46.98 8.0413L46.67 11.4813H45.59C43.35 11.4813 42.24 13.2813 42.24 15.0013V22.7713H38.26V8.0313H42.03L42.11 9.8713C42.9 8.6113 44.29 8.0313 45.99 8.0313H46.98V8.0413ZM20.31 21.1413C17.61 22.5813 14.92 23.4213 11.36 23.3113C4.76 23.1113 0 19.0113 0 12.0913C0 5.1713 4.82 0.791299 11.38 0.681299C14.7 0.631299 17.68 1.4713 20 3.5213L17.2 6.3513C15.76 5.1213 13.64 4.4113 11.11 4.5213C6.98 4.7113 4.5 7.7113 4.44 11.8313C4.39 16.3013 7.13 19.3813 11.41 19.4913C13.43 19.5413 14.87 19.2713 16.12 18.7113V14.1413H11.67L11.97 10.3913H20.33V21.1113L20.31 21.1413ZM88.15 16.8113H77.24C77.55 18.6913 79.03 19.8213 80.87 19.8813C82.66 19.9313 83.66 19.3913 84.97 18.0613L87.57 20.0413C85.73 22.3113 83.51 23.1413 80.99 23.1413C76.55 23.1413 73.23 20.0413 73.23 15.4113C73.23 10.7813 76.54 7.6913 80.82 7.6913C85.54 7.6913 88.14 10.5513 88.14 15.6313V16.8113H88.15ZM84.16 13.7313C84.04 11.8713 82.64 10.6913 80.72 10.7713C78.79 10.8413 77.5 12.1013 77.23 13.7313H84.15H84.16ZM35.75 13.1313V22.7813H32.24L32.15 21.3313C31.07 22.6613 29.33 23.1413 27.53 23.1413C24.82 23.1413 22.26 21.8013 22.21 18.6913C22.13 13.8013 27.71 13.4513 31.22 13.4513H31.92V13.2613C31.92 11.6413 30.85 10.7713 28.84 10.7713C27.39 10.7713 25.97 11.3513 24.91 12.3413L22.61 10.0113C24.69 8.3213 26.86 7.6913 29.17 7.6913C33.73 7.6913 35.74 9.8013 35.74 13.1313M31.91 16.3513H31.36C29.48 16.3513 26.17 16.4513 26.18 18.4213C26.2 21.1913 31.91 20.3113 31.91 16.9713V16.3613V16.3513ZM95.88 21.0613C95.88 20.1213 96.59 19.4213 97.49 19.4213C98.39 19.4213 99.09 20.1313 99.09 21.0613C99.09 21.9913 98.38 22.7213 97.49 22.7213C96.6 22.7213 95.88 22.0213 95.88 21.0613ZM97.49 23.0513C98.57 23.0513 99.49 22.2113 99.49 21.0613C99.49 19.9113 98.57 19.0913 97.49 19.0913C96.41 19.0913 95.48 19.9313 95.48 21.0613C95.48 22.1913 96.4 23.0513 97.49 23.0513ZM97.07 21.2213H97.47L98.07 22.2113H98.46L97.81 21.2013C98.15 21.1613 98.4 20.9813 98.4 20.5713C98.4 20.1213 98.13 19.9213 97.59 19.9213H96.72V22.2113H97.07V21.2213ZM97.07 20.9313V20.2213H97.54C97.78 20.2213 98.04 20.2713 98.04 20.5613C98.04 20.9113 97.78 20.9313 97.49 20.9313H97.07Z" fill="#010203"/>
</svg>
