<?xml version="1.0" encoding="UTF-8"?><svg id="Layer_2" xmlns="http://www.w3.org/2000/svg" viewBox="0 0 1796.26 318.67"><defs><style>.cls-1{fill:#010203;stroke-width:0px;}</style></defs><g id="Layer_1-2"><path class="cls-1" d="M1681.64,9.51l-62.79,162.25-62.36-162.25h-114.28v8.57c66.9,81.97,66.9,199.7,0,281.67v8.57h84.38V113.93l75.3,194.54h34.27l75.81-194.54v194.54h84.29V9.51h-114.62Z"/><path class="cls-1" d="M1107.18,159.34c0-93.72,70.67-159.34,164.9-159.34s164.39,65.11,164.39,159.34-70.25,159.34-164.39,159.34-164.9-65.71-164.9-159.34ZM1355.6,159.34c0-50.37-32.81-89.18-83.61-89.18s-84.04,38.81-84.04,89.18,32.81,89.18,84.04,89.18,83.69-39.41,83.69-89.18h-.09Z"/><path class="cls-1" d="M353.07,308.48V9.51h77.1v299.06l-77.1-.09Z"/><path class="cls-1" d="M1017.06,308.48l-14.82-42.83h-117.87l-14.82,42.83h-87.38L894.73,9.42h96.89l112.82,299.06h-87.38ZM943.04,85.75l-38.12,112.56h76.24l-38.12-112.56Z"/><path class="cls-1" d="M313.23,136.38h-154.2v62.54h70.67c-11.53,28.04-39.16,46.07-69.47,45.32-45.56.29-82.73-36.41-83.02-81.97,0-.63,0-1.27,0-1.9,0-48.32,34.27-84.72,79.93-84.72,25.78-.44,50.12,11.83,65.11,32.81l1.54,1.97,58-44.8-1.63-2.06C249.38,26.08,203.25,4.59,154.75,5.14,71.08,3.37,1.81,69.76.03,153.43c-.05,2.28-.05,4.56,0,6.84C.04,248,66.95,314.48,155.61,314.48c40.19.08,78.97-14.86,108.71-41.89,33.32-30.15,49.51-68.53,49.51-117.62,0-2.66,0-9.77-.43-15.59l-.17-3Z"/><path class="cls-1" d="M782.68,136.38h-154.2v62.54h70.67c-11.55,28.03-39.17,46.04-69.47,45.32-45.56.24-82.69-36.49-82.93-82.05,0-.6,0-1.21.01-1.81,0-48.32,34.27-84.72,79.93-84.72,25.78-.44,50.12,11.83,65.11,32.81l1.54,1.97,57.99-44.8-1.63-2.06c-30.8-37.51-76.97-59-125.5-58.42-83.68-1.77-152.95,64.62-154.72,148.29-.05,2.28-.05,4.56,0,6.84,0,87.72,66.9,154.2,155.57,154.2,40.19.08,78.96-14.86,108.71-41.89,33.32-30.15,49.51-68.53,49.51-117.62,0-2.66,0-9.77-.43-15.59l-.17-3Z"/></g></svg>