<svg class="site-navigation-language-switcher-icon" xmlns="http://www.w3.org/2000/svg" width="18" height="19" viewBox="0 0 18 19" fill="none">
        <path fill-rule="evenodd" clip-rule="evenodd" d="M17 9.5C17 13.9179 13.4186 17.5 9 17.5C4.58208 17.5 1 13.9179 1 9.5C1 5.08144 4.58208 1.5 9 1.5C13.4186 1.5 17 5.08144 17 9.5Z" stroke="white" stroke-width="1.5" stroke-linecap="round" stroke-linejoin="round"/>
        <path fill-rule="evenodd" clip-rule="evenodd" d="M16.4961 9.64342C16.4961 11.413 13.0542 12.8473 8.8078 12.8473C4.56204 12.8473 1.12012 11.413 1.12012 9.64342C1.12012 7.87382 4.56204 6.43958 8.8078 6.43958C13.0542 6.43958 16.4961 7.87382 16.4961 9.64342Z" stroke="white" stroke-width="1.5" stroke-linecap="round" stroke-linejoin="round"/>
        <path fill-rule="evenodd" clip-rule="evenodd" d="M9.09398 1.95529C10.8636 1.95529 12.2978 5.39721 12.2978 9.64361C12.2978 13.8894 10.8636 17.3313 9.09398 17.3313C7.32438 17.3313 5.89014 13.8894 5.89014 9.64361C5.89014 5.39721 7.32438 1.95529 9.09398 1.95529Z" stroke="white" stroke-width="1.5" stroke-linecap="round" stroke-linejoin="round"/>
      </svg>