<?xml version="1.0" encoding="UTF-8"?>
<svg id="b" data-name="Layer 2" xmlns="http://www.w3.org/2000/svg" width="31.25" height="31.25" viewBox="0 0 31.25 31.25">
  <g id="c" data-name="Icons">
    <g id="d" data-name="Monitor_Black">
      <circle cx="16.914" cy="24.764" r="1.5" fill="#010203" stroke-width="0"/>
      <circle cx="29.125" cy="10.125" r="1.5" fill="#010203" stroke-width="0"/>
      <circle cx="2.125" cy="9.125" r="1.5" fill="#010203" stroke-width="0"/>
      <circle cx="15.625" cy="15.625" r="2.5" fill="#010203" stroke-width="0"/>
      <path d="M30.625,15.625c0,8.284-6.716,15-15,15S.625,23.909.625,15.625,7.341.625,15.625.625c3.739,0,7.159,1.368,9.786,3.632" fill="none" stroke="#010203" stroke-linejoin="bevel" stroke-width="1.25"/>
      <path d="M24.734,15.625c0,3.144-1.593,5.917-4.016,7.554-1.454.982-3.206,1.556-5.093,1.556-5.031,0-9.109-4.078-9.109-9.109S10.594,6.516,15.625,6.516c2.279,0,4.363.837,5.96,2.22" fill="none" stroke="#010203" stroke-linejoin="bevel" stroke-width="1.25"/>
      <line x1="15.548" y1="15.595" x2="27.784" y2="1.41" fill="none" stroke="#010203" stroke-linejoin="bevel" stroke-width="1.25"/>
    </g>
  </g>
</svg>